<svg width="166" height="40" viewBox="0 0 166 40" fill="none" xmlns="http://www.w3.org/2000/svg">
<g clip-path="url(#clip0_7063_83037)">
<path d="M0 20C0 31.0281 8.96842 40 20 40C31.0316 40 40 31.0281 40 20C40 14.814 38.0211 9.89825 34.4386 6.15789C34.1158 5.82456 33.5895 5.81404 33.2561 6.13684C32.9263 6.46316 32.9158 6.99649 33.2351 7.32982C35.8386 10.0456 37.5123 13.4421 38.0947 17.0912L35.4175 17.4421C34.9649 17.5018 34.6421 17.9158 34.6912 18.3754C35.1123 22.1298 34.0877 25.8667 31.8105 28.8877C31.614 29.1474 31.407 29.4035 31.1965 29.6491C30.8947 30 30.9333 30.5333 31.2807 30.8386C31.4386 30.9754 31.6316 31.0421 31.8281 31.0421C32.0632 31.0421 32.2947 30.9439 32.4597 30.7509C32.6982 30.4772 32.9263 30.1895 33.1439 29.9053C35.5158 26.7579 36.6667 22.9193 36.4246 19.0105L38.2842 18.7684C38.3123 19.1789 38.3298 19.586 38.3298 20C38.3298 30.1018 30.1088 38.3158 20 38.3158C9.89123 38.3158 1.67018 30.1018 1.67018 20C1.67018 19.1965 1.72982 18.4105 1.82807 17.6351L3.70175 17.9333C3.03158 22.7474 4.54035 27.5333 7.9193 31.1754C8.08421 31.3544 8.30526 31.4456 8.52982 31.4456C8.73333 31.4456 8.93684 31.3684 9.10175 31.2175C9.44211 30.9018 9.45965 30.3649 9.14386 30.0246C5.94035 26.5649 4.60702 21.9579 5.49123 17.393C5.53333 17.1649 5.48772 16.9368 5.35439 16.7474C5.22456 16.5579 5.02456 16.4351 4.8 16.3965L2.12281 15.9684C3.96842 7.80702 11.2772 1.68421 20 1.68421C23.4351 1.68421 26.7579 2.62807 29.6526 4.42807L28.6351 6.00351C21.4947 1.59298 12.007 3.27368 6.86316 10.1088C6.27018 10.8947 5.74737 11.7368 5.30526 12.6105C5.09825 13.0246 5.25965 13.5333 5.67018 13.7439C6.0807 13.9544 6.58597 13.7895 6.79298 13.3754C7.18597 12.593 7.65965 11.8351 8.19298 11.1298C11.8456 6.27719 17.9333 4.3193 23.4947 5.66316L22.7193 8.21754C22.6561 8.43158 22.6772 8.66316 22.7825 8.86316C22.8877 9.05965 23.0667 9.21053 23.2772 9.27368C26.8421 10.3614 29.5263 13.0526 30.6526 16.4281L28.8246 16.9158C27.5439 13.2737 24.0737 10.6561 20 10.6561C14.8456 10.6561 10.6491 14.8561 10.6491 20.014C10.6491 25.1719 14.8456 29.3719 20 29.3719C22.0211 29.3719 23.9404 28.7404 25.5614 27.5404C25.9333 27.2667 26.014 26.7368 25.7404 26.3614C25.4702 25.986 24.9439 25.9053 24.5684 26.1825C23.2421 27.1649 21.6596 27.6877 20 27.6877C15.7649 27.6877 12.3193 24.2456 12.3193 20.0175C12.3193 15.7895 15.7649 12.3474 20 12.3474C24.2351 12.3474 27.6807 15.7895 27.6807 20.0175C27.6807 20.9789 27.5053 21.9193 27.1579 22.8105C26.9895 23.2421 27.2 23.7333 27.6281 23.9053C28.0596 24.0772 28.5439 23.8632 28.7158 23.4316C29.1403 22.3439 29.3579 21.2 29.3579 20.0175C29.3579 19.5228 29.3158 19.0351 29.2421 18.5544L31.0632 18.0702C31.1719 18.7018 31.2316 19.3544 31.2316 20.0175C31.2316 26.207 26.1965 31.2386 20 31.2386C13.8035 31.2386 8.76842 26.207 8.76842 20.0175C8.76842 13.8281 13.4105 9.16491 19.3333 8.81754C19.7965 8.79298 20.1474 8.38947 20.1228 7.92982C20.0982 7.46316 19.6982 7.10877 19.2386 7.14035C12.4281 7.53684 7.10175 13.1965 7.10175 20.0246C7.10175 26.8526 12.8877 32.9298 20.0035 32.9298C22.0772 32.9298 24.0421 32.4351 25.7789 31.5614L26.8316 33.1509C22.0246 35.7333 16.2807 35.3965 11.6386 32.2C11.2561 31.9403 10.7404 32.0386 10.4772 32.4211C10.214 32.807 10.3158 33.3333 10.6982 33.593C13.5649 35.5649 16.8175 36.5614 20.0526 36.5579C22.9579 36.5579 25.8561 35.7579 28.4667 34.1544C28.6632 34.0351 28.7965 33.8421 28.8491 33.614C28.9018 33.393 28.8526 33.1579 28.7298 32.9649L27.2421 30.7053C30.6667 28.3825 32.9193 24.4561 32.9193 20.0175C32.9193 14.5789 29.6 9.82807 24.5789 7.94035L25.1228 6.16491C26.4491 6.65263 27.7333 7.33684 28.9158 8.23158C31.0597 9.84211 32.7158 12.0035 33.7193 14.4737C33.8491 14.8 34.1649 15 34.4947 15C34.6 15 34.7053 14.9789 34.807 14.9368C35.2351 14.7614 35.4386 14.2702 35.2667 13.8386C34.1719 11.1333 32.3614 8.7614 30.0351 6.97895L31.5333 4.65965C31.7825 4.27368 31.6772 3.7614 31.3053 3.50175C27.9509 1.20702 24.0491 0 20 0C8.96842 0 0 8.97193 0 20Z" fill="url(#paint0_linear_7063_83037)"/>
<path d="M50.5263 33.5298V11.014C50.5263 10.8982 50.614 10.8105 50.7298 10.8105H55.5824C55.6842 10.8105 55.7719 10.8842 55.786 10.9825L56.2632 13.9158C57 12.8035 57.9824 11.9228 59.1965 11.2596C60.4105 10.5965 61.8246 10.2632 63.4281 10.2632C66.8526 10.2632 69.3193 11.5474 70.8105 14.1053C70.8842 14.2351 71.0561 14.2351 71.1438 14.1193C71.9544 12.9789 73.021 12.0526 74.3228 11.3754C75.7228 10.6386 77.2561 10.2632 78.9158 10.2632C81.9053 10.2632 84.2035 11.1579 85.8035 12.9509C87.4035 14.7439 88.2 17.3579 88.2 20.807V33.5474C88.2 33.6632 88.1123 33.7509 87.9965 33.7509H82.4947C82.3789 33.7509 82.2912 33.6632 82.2912 33.5474V21.3403C82.2912 19.3754 81.9158 17.8596 81.1649 16.8035C80.414 15.7474 79.2421 15.2281 77.6702 15.2281C76.0982 15.2281 74.7824 15.8211 73.814 16.9895C72.8456 18.1579 72.3544 19.793 72.3544 21.8842V33.5123C72.3544 33.6281 72.2667 33.7158 72.1509 33.7158H66.6491C66.5333 33.7158 66.4456 33.6281 66.4456 33.5123V21.3403C66.4456 19.3754 66.0561 17.8596 65.2912 16.8035C64.5263 15.7474 63.3263 15.2281 61.7368 15.2281C60.1474 15.2281 58.8912 15.8211 57.9228 16.9895C56.9544 18.1579 56.4631 19.793 56.4631 21.8842V33.5123C56.4631 33.6281 56.3754 33.7158 56.2596 33.7158H50.7579C50.6421 33.7158 50.5544 33.6281 50.5544 33.5123L50.5263 33.5263V33.5298Z" fill="#222222"/>
<path d="M102.67 34.2807C100.358 34.2807 98.3088 33.7895 96.5158 32.807C94.7263 31.8246 93.3228 30.4386 92.3123 28.6456C91.3017 26.8561 90.7825 24.7895 90.7825 22.4491C90.7825 20.1088 91.2877 17.9719 92.2842 16.1228C93.2807 14.2737 94.6667 12.8281 96.4456 11.8035C98.221 10.7789 100.302 10.2597 102.716 10.2597C104.968 10.2597 106.947 10.7509 108.681 11.7333C110.4 12.7158 111.758 14.0737 112.726 15.7789C113.695 17.4842 114.186 19.3895 114.186 21.4842C114.186 21.8175 114.186 22.1789 114.158 22.5544C114.144 22.9298 114.116 23.3053 114.088 23.7088H96.8982C96.7825 23.7088 96.6807 23.8246 96.6807 23.9404C96.8386 25.6175 97.4596 26.9439 98.5298 27.9123C99.6 28.8807 101.014 29.4421 102.618 29.4421C103.818 29.4421 104.828 29.1684 105.649 28.6316C106.428 28.1123 107.021 27.4456 107.425 26.6386C107.453 26.5649 107.526 26.5228 107.596 26.5228H113.2C113.344 26.5228 113.446 26.6667 113.404 26.7965C112.968 28.1404 112.277 29.3684 111.337 30.4807C110.34 31.6667 109.098 32.6035 107.639 33.2842C106.179 33.9614 104.519 34.2947 102.67 34.2947V34.2807V34.2807ZM102.712 15.0561C101.267 15.0561 99.9825 15.4597 98.8702 16.2842C97.814 17.0632 97.1228 18.2035 96.7895 19.7509C96.7614 19.8807 96.8632 20.0105 96.993 20.0105H107.926C108.042 20.0105 108.144 19.8947 108.144 19.7789C108.014 18.3789 107.467 17.2526 106.498 16.414C105.488 15.5193 104.218 15.0702 102.712 15.0702V15.0561V15.0561Z" fill="#222222"/>
<path d="M117.084 33.5158V11.014C117.084 10.8982 117.172 10.8105 117.288 10.8105H122.789C122.905 10.8105 122.993 10.8982 122.993 11.014V33.5298C122.993 33.6456 122.905 33.7333 122.789 33.7333H117.288C117.172 33.7333 117.084 33.6456 117.084 33.5298V33.5158Z" fill="#222222"/>
<path d="M120.046 8.66316C118.961 8.66316 118.081 8.34386 117.389 7.69474C116.695 7.04561 116.351 6.23509 116.351 5.2386C116.351 4.24211 116.698 3.44912 117.389 2.81053C118.084 2.17544 118.965 1.85614 120.046 1.85614C121.126 1.85614 122.011 2.17544 122.702 2.81053C123.396 3.44561 123.74 4.25614 123.74 5.2386C123.74 6.22105 123.393 7.04561 122.702 7.69474C122.007 8.34386 121.126 8.66316 120.046 8.66316V8.66316Z" fill="#222222"/>
<path d="M126.891 33.386V11.1579C126.891 10.9684 127.049 10.8105 127.239 10.8105H131.846C132.018 10.8105 132.179 10.9404 132.193 11.1123L132.582 14.1298C132.625 14.4632 133.046 14.5333 133.232 14.2737C133.996 13.1754 134.951 12.2807 136.105 11.5719C137.449 10.7474 139.007 10.3158 140.8 10.2561C141.004 10.2561 141.175 10.414 141.175 10.6175V16.4947H139.516C138.218 16.4947 137.06 16.6982 136.049 17.1018C135.039 17.5053 134.246 18.2 133.667 19.1825C133.102 20.1649 132.814 21.5368 132.814 23.2982V33.393C132.814 33.5825 132.656 33.7404 132.467 33.7404H127.253C127.063 33.7404 126.905 33.5825 126.905 33.393L126.891 33.3789V33.386Z" fill="#222222"/>
<path d="M153.467 34.2842C151.242 34.2842 149.249 33.7789 147.488 32.7544C145.726 31.7298 144.309 30.3263 143.284 28.5228C142.26 26.7158 141.74 24.6386 141.74 22.2526C141.74 19.8667 142.26 17.7895 143.316 15.9825C144.354 14.1754 145.772 12.7754 147.547 11.7509C149.323 10.7404 151.316 10.2211 153.526 10.2211C155.737 10.2211 157.702 10.7263 159.463 11.7509C161.239 12.7614 162.642 14.1789 163.667 15.9825C164.691 17.7895 165.211 19.8667 165.211 22.2526C165.211 24.6386 164.691 26.7158 163.667 28.5228C162.642 30.3298 161.225 31.7298 159.435 32.7544C157.642 33.7649 155.667 34.2842 153.47 34.2842H153.467ZM153.467 29.1579C155.011 29.1579 156.34 28.579 157.481 27.4246C158.621 26.2702 159.186 24.5509 159.186 22.2667C159.186 19.9825 158.607 18.2667 157.481 17.1088C156.34 15.9544 155.011 15.3754 153.509 15.3754C152.007 15.3754 150.589 15.9544 149.463 17.1088C148.337 18.2632 147.772 19.9825 147.772 22.2667C147.772 24.5509 148.337 26.2667 149.463 27.4246C150.589 28.579 151.919 29.1579 153.463 29.1579H153.467Z" fill="#222222"/>
</g>
<defs>
<linearGradient id="paint0_linear_7063_83037" x1="0" y1="20" x2="40" y2="20" gradientUnits="userSpaceOnUse">
<stop stop-color="#EF7967"/>
<stop offset="1" stop-color="#FBBF56"/>
</linearGradient>
<clipPath id="clip0_7063_83037">
<rect width="165.211" height="40" fill="white"/>
</clipPath>
</defs>
</svg>
